<svg width="20" height="21" viewBox="0 0 20 21" fill="none" xmlns="http://www.w3.org/2000/svg">
<path d="M1.54931 16.6761H1.662L7.09863 15.493C7.20452 15.4754 7.30266 15.4263 7.3803 15.3522L16.5915 6.14093C16.9246 5.80854 17.1883 5.41323 17.3672 4.978C17.5462 4.54277 17.6368 4.07631 17.6338 3.60574C17.635 2.64785 17.2608 1.7276 16.5915 1.04236C16.2591 0.709239 15.8638 0.445547 15.4286 0.266622C14.9934 0.0876968 14.5269 -0.00288866 14.0563 0.000135971C13.583 -0.00405685 13.1139 0.0887593 12.6779 0.272859C12.2419 0.45696 11.8482 0.72844 11.5211 1.07055L2.33801 10.2818C2.25701 10.3469 2.198 10.4355 2.16898 10.5353L0.98593 15.9719C0.969995 16.0681 0.976998 16.1668 1.00637 16.2598C1.03574 16.3528 1.08665 16.4375 1.15496 16.5072C1.25898 16.6133 1.40072 16.674 1.54931 16.6761ZM14.0563 1.1269C15.4098 1.12679 16.5071 2.22395 16.5072 3.57744L16.507 3.60574C16.5116 3.92484 16.4515 4.24156 16.3305 4.53686C16.2095 4.83215 16.03 5.09991 15.8028 5.32403L12.338 1.83106C12.5641 1.60644 12.8322 1.42863 13.127 1.3078C13.4219 1.18697 13.7377 1.12549 14.0563 1.1269ZM11.5493 2.64801L15.0141 6.11278L6.98589 14.1128L3.52112 10.6761L11.5493 2.64801ZM3.07042 11.8029L5.85913 14.5916L2.28167 15.3804L3.07042 11.8029ZM19.4366 19.7184H0.563381C0.252225 19.7184 0 19.9706 0 20.2818C0 20.593 0.252225 20.8452 0.563381 20.8452H19.4366C19.7478 20.8452 20 20.593 20 20.2818C20 19.9706 19.7478 19.7184 19.4366 19.7184Z" fill="#4C5157"/>
</svg>
