<svg width="24" height="24" viewBox="0 0 24 24" fill="none" xmlns="http://www.w3.org/2000/svg">
<path d="M2.57143 9.42857C2.57143 4.22143 6.79286 0 12 0C17.2071 0 21.4286 4.22143 21.4286 9.42857V10.3937C22.9071 10.7743 24 12.1166 24 13.7143V17.1429C24.0001 17.6423 23.8911 18.1357 23.6806 18.5886C23.4701 19.0414 23.1632 19.4429 22.7814 19.7648C22.3995 20.0867 21.952 20.3213 21.47 20.4522C20.9881 20.5831 20.4834 20.6071 19.9911 20.5226C19.4092 21.622 18.5256 22.5324 17.444 23.1469C16.3625 23.7614 15.128 24.0544 13.8857 23.9914C13.8288 23.9971 13.7715 24 13.7143 24H12C11.5453 24 11.1093 23.8194 10.7878 23.4979C10.4663 23.1764 10.2857 22.7404 10.2857 22.2857C10.2857 21.8311 10.4663 21.395 10.7878 21.0735C11.1093 20.752 11.5453 20.5714 12 20.5714H13.7143C14.1424 20.5714 14.555 20.7316 14.871 21.0204C15.1869 21.3093 15.3834 21.7059 15.4217 22.1323C16.0529 21.9696 16.6445 21.6805 17.1607 21.2824C17.6768 20.8843 18.1067 20.3855 18.4243 19.8163C18.0239 19.4953 17.7008 19.0883 17.479 18.6256C17.2572 18.1628 17.1423 17.656 17.1429 17.1429V13.7143C17.143 12.9541 17.3956 12.2155 17.861 11.6145C18.3264 11.0134 18.9783 10.584 19.7143 10.3937V9.42857C19.7143 7.38262 18.9015 5.42046 17.4548 3.97375C16.0081 2.52704 14.046 1.71429 12 1.71429C9.95404 1.71429 7.99189 2.52704 6.54518 3.97375C5.09847 5.42046 4.28571 7.38262 4.28571 9.42857V10.3937C5.76429 10.7743 6.85714 12.1166 6.85714 13.7143V17.1429C6.85714 18.0522 6.49592 18.9242 5.85294 19.5672C5.20996 20.2102 4.33789 20.5714 3.42857 20.5714C2.51926 20.5714 1.64719 20.2102 1.00421 19.5672C0.361224 18.9242 0 18.0522 0 17.1429V13.7143C0.000101098 12.9541 0.252706 12.2155 0.71814 11.6145C1.18357 11.0134 1.83547 10.584 2.57143 10.3937V9.42857Z" fill="#FFBC00"/>
</svg>
